<svg xmlns="http://www.w3.org/2000/svg" xmlns:xlink="http://www.w3.org/1999/xlink" viewBox="0 0 647.77 105.16"><defs><style>.cls-1{fill:url(#linear-gradient);}.cls-2{fill:url(#linear-gradient-2);}.cls-3{fill:url(#linear-gradient-3);}.cls-4{fill:url(#linear-gradient-4);}.cls-5{fill:url(#linear-gradient-5);}.cls-6,.cls-7{stroke-miterlimit:10;}.cls-6{fill:url(#linear-gradient-6);stroke:url(#linear-gradient-7);}.cls-7{fill:url(#linear-gradient-8);stroke:url(#linear-gradient-9);}.cls-8{fill:url(#linear-gradient-10);}.cls-9{fill:none;}</style><linearGradient id="linear-gradient" x1="41.81" y1="0.5" x2="41.81" y2="93.71" gradientUnits="userSpaceOnUse"><stop offset="0" stop-color="#ff914d"/><stop offset="0.23" stop-color="#ff6841"/><stop offset="0.51" stop-color="#ff3131"/><stop offset="1" stop-color="#c80101"/></linearGradient><linearGradient id="linear-gradient-2" x1="332.8" y1="41.45" x2="332.8" y2="105.16" xlink:href="#linear-gradient"/><linearGradient id="linear-gradient-3" x1="122.83" y1="21.8" x2="122.83" y2="93.71" xlink:href="#linear-gradient"/><linearGradient id="linear-gradient-4" x1="295.26" y1="21.94" x2="295.26" y2="93.71" xlink:href="#linear-gradient"/><linearGradient id="linear-gradient-5" x1="398.99" y1="21.8" x2="398.99" y2="95.04" xlink:href="#linear-gradient"/><linearGradient id="linear-gradient-6" x1="508.07" y1="93.71" x2="508.07" y2="0.5" gradientUnits="userSpaceOnUse"><stop offset="0" stop-color="#fff"/><stop offset="0.01" stop-color="#f0f0f0"/><stop offset="0.06" stop-color="#bdbdbd"/><stop offset="0.09" stop-color="#989898"/><stop offset="0.12" stop-color="#818181"/><stop offset="0.14" stop-color="#797979"/><stop offset="0.18" stop-color="gray"/><stop offset="0.22" stop-color="#959595"/><stop offset="0.28" stop-color="#b7b7b7"/><stop offset="0.35" stop-color="#e5e5e5"/><stop offset="0.38" stop-color="#fff"/><stop offset="0.53" stop-color="#fafafa"/><stop offset="0.7" stop-color="#eaeaea"/><stop offset="0.9" stop-color="#d1d1d1"/><stop offset="1" stop-color="#c2c2c2"/></linearGradient><linearGradient id="linear-gradient-7" x1="468.22" y1="47.1" x2="547.92" y2="47.1" xlink:href="#linear-gradient-6"/><linearGradient id="linear-gradient-8" x1="605.46" y1="93.71" x2="605.46" y2="0.5" xlink:href="#linear-gradient-6"/><linearGradient id="linear-gradient-9" x1="563.15" y1="47.1" x2="647.77" y2="47.1" xlink:href="#linear-gradient-6"/><linearGradient id="linear-gradient-10" x1="189.24" y1="21.93" x2="189.24" y2="93.71" xlink:href="#linear-gradient"/></defs><g id="Layer_2" data-name="Layer 2"><g id="Layer_1-2" data-name="Layer 1"><path class="cls-1" d="M0,93.71V.5H38.21A48.65,48.65,0,0,1,56.79,3.9,41.37,41.37,0,0,1,80.42,28.2a53.24,53.24,0,0,1,3.2,18.9,53.37,53.37,0,0,1-3.2,18.84,42,42,0,0,1-9.18,14.78,41.3,41.3,0,0,1-14.38,9.59,49.2,49.2,0,0,1-18.65,3.4ZM20,79.19l-2.13-3.46H37.55a27.09,27.09,0,0,0,10.78-2.06A23.22,23.22,0,0,0,61.65,59,38.31,38.31,0,0,0,63.38,47.1a37.72,37.72,0,0,0-1.73-11.78,24.42,24.42,0,0,0-5.13-9,23.54,23.54,0,0,0-8.19-5.79,26.92,26.92,0,0,0-10.78-2.06H17.44L20,15.28Z"/><path class="cls-2" d="M444.42,102.16v3H250.66a29.51,29.51,0,0,1-29.48-29.48V41.45c.11.2.2.4.3.61l.9,2,.3.74,1.5,4.82V75.68a26.51,26.51,0,0,0,26.48,26.48Z"/><path class="cls-3" d="M99.06,93.71V23.27h18.25L118,45.9l-3.19-4.65A28.17,28.17,0,0,1,120,31.33a26.45,26.45,0,0,1,8.46-7,21.8,21.8,0,0,1,10.18-2.53,24.49,24.49,0,0,1,4.4.4,23.31,23.31,0,0,1,3.59.94l-5.06,20.77a17,17,0,0,0-3.79-1.4,18.93,18.93,0,0,0-4.73-.6A15.43,15.43,0,0,0,127.09,43a13.9,13.9,0,0,0-4.72,3.2,14.93,14.93,0,0,0-3.13,4.86,16.06,16.06,0,0,0-1.13,6.12V93.71Z"/><path class="cls-4" d="M241,93.71V23.27h18.25l.4,13.45-2.8.53A22.87,22.87,0,0,1,260.78,31a25.55,25.55,0,0,1,5.66-4.79,29.25,29.25,0,0,1,6.79-3.13,23.92,23.92,0,0,1,7.19-1.13,26.75,26.75,0,0,1,9.85,1.73,18.31,18.31,0,0,1,7.46,5.39,26.16,26.16,0,0,1,4.79,9.66l-2.93-.27.93-2.13a25.49,25.49,0,0,1,4.4-5.86,27.53,27.53,0,0,1,6-4.53A34.06,34.06,0,0,1,317.83,23a24.78,24.78,0,0,1,7.06-1.06q8.25,0,13.72,3.26A20,20,0,0,1,346.8,35a41.61,41.61,0,0,1,2.72,16V93.71h-18.9V52.3a20,20,0,0,0-1.33-7.86,9.7,9.7,0,0,0-3.87-4.59,12.44,12.44,0,0,0-6.52-1.53,15.76,15.76,0,0,0-5.66,1,14,14,0,0,0-4.53,2.8,12.69,12.69,0,0,0-3,4.26,13.16,13.16,0,0,0-1.07,5.26V93.71h-19V52.16a19.12,19.12,0,0,0-1.33-7.52,10.16,10.16,0,0,0-3.86-4.73,11.57,11.57,0,0,0-6.26-1.59,15.76,15.76,0,0,0-5.66,1,13.16,13.16,0,0,0-4.46,2.8,13.3,13.3,0,0,0-2.93,4.2,12.58,12.58,0,0,0-1.06,5.19V93.71Z"/><path class="cls-5" d="M393.86,95A27.57,27.57,0,0,1,378,90.25a33.55,33.55,0,0,1-11.19-13,41.78,41.78,0,0,1-4.12-18.91,41.15,41.15,0,0,1,4.19-18.91,32.72,32.72,0,0,1,11.38-12.92,29.54,29.54,0,0,1,16.38-4.66,28.37,28.37,0,0,1,9.52,1.54,25.12,25.12,0,0,1,7.59,4.19,26.81,26.81,0,0,1,5.53,6.13,23,23,0,0,1,3.19,7.45l-4-.66V23.27h18.77V93.71h-19V76.8l4.26-.4a22.56,22.56,0,0,1-3.46,7,26.84,26.84,0,0,1-5.92,5.93,30,30,0,0,1-7.93,4.13A28.07,28.07,0,0,1,393.86,95Zm5.2-16.38a17,17,0,0,0,9.32-2.53A16.78,16.78,0,0,0,414.57,69a24.69,24.69,0,0,0,2.2-10.72,23.88,23.88,0,0,0-2.2-10.52,17.33,17.33,0,0,0-6.19-7.12,16.74,16.74,0,0,0-9.32-2.6,16.13,16.13,0,0,0-9.12,2.6,18,18,0,0,0-6.2,7.12,23.21,23.21,0,0,0-2.26,10.52A24,24,0,0,0,383.74,69a17.36,17.36,0,0,0,6.2,7.12A16.4,16.4,0,0,0,399.06,78.66Z"/><polygon class="cls-6" points="547.42 0.5 547.42 93.71 527.44 93.71 527.44 56.29 488.7 56.29 488.7 93.71 468.72 93.71 468.72 0.5 488.7 0.5 488.7 38.18 527.44 38.18 527.44 0.5 547.42 0.5"/><path class="cls-7" d="M644.08,28.2A41.42,41.42,0,0,0,620.44,3.9,48.63,48.63,0,0,0,601.87.5H563.65V93.71h38.22a49.18,49.18,0,0,0,18.64-3.4,41.3,41.3,0,0,0,14.38-9.59,42.14,42.14,0,0,0,9.19-14.78,53.6,53.6,0,0,0,3.19-18.84A53.46,53.46,0,0,0,644.08,28.2ZM625.3,59A23.24,23.24,0,0,1,612,73.67a27.17,27.17,0,0,1-10.79,2.06H583.62V18.48H601.2A27,27,0,0,1,612,20.54a23.6,23.6,0,0,1,8.18,5.79,24.42,24.42,0,0,1,5.13,9A37.72,37.72,0,0,1,627,47.1,38.31,38.31,0,0,1,625.3,59Z"/><path class="cls-8" d="M224.43,50.75c-.08-.39-.16-.78-.25-1.16a35,35,0,0,0-1.5-4.82l-.3-.74-.9-2c-.1-.21-.19-.41-.3-.61s-.18-.36-.27-.54-.13-.23-.2-.35a35.89,35.89,0,1,0-.33,35.1c.28-.48.55-1,.8-1.48.07-.13.14-.26.2-.39.36-.71.69-1.43,1-2.17.1-.25.21-.51.3-.76a35.78,35.78,0,0,0,1.5-4.81c.09-.38.17-.77.25-1.16a36.05,36.05,0,0,0,0-14.14ZM181.6,32.69a7.8,7.8,0,1,1,9.18,9.21A7.76,7.76,0,0,1,181.6,32.69Zm6.48,30a5,5,0,1,1,6.07-6.07A5,5,0,0,1,188.08,62.73Zm-26-20.58a7.79,7.79,0,1,1,2.85,10.64A7.79,7.79,0,0,1,162.09,42.15Zm9.82,34.61a7.79,7.79,0,1,1,3.67-11.05A7.83,7.83,0,0,1,171.91,76.76Zm17.33,12.42A7.79,7.79,0,1,1,197,81.39,7.8,7.8,0,0,1,189.24,89.18ZM216.4,73.5a7.79,7.79,0,1,1-2.85-10.64A7.79,7.79,0,0,1,216.4,73.5Zm-2.85-20.71a7.79,7.79,0,1,1,2.85-10.64A7.79,7.79,0,0,1,213.55,52.79Z"/><line class="cls-9" x1="444.42" y1="105.16" x2="444.42" y2="103.66"/></g></g></svg>